<svg xmlns="http://www.w3.org/2000/svg" xmlns:xlink="http://www.w3.org/1999/xlink" width="500" zoomAndPan="magnify" viewBox="0 0 375 374.999991" height="500" preserveAspectRatio="xMidYMid meet" version="1.0"><defs><clipPath id="67e1b01c47"><path d="M 9 136 L 366.289062 136 L 366.289062 246 L 9 246 Z M 9 136 " clip-rule="nonzero"/></clipPath></defs><g clip-path="url(#67e1b01c47)"><path fill="#e6c0ae" d="M 365.476562 176.460938 C 365.070312 175.34375 363.753906 174.433594 362.636719 174.839844 C 351.785156 178.6875 341.03125 182.539062 330.179688 186.390625 C 327.339844 187.402344 328.554688 191.859375 331.394531 190.949219 C 340.320312 188.113281 349.347656 185.273438 358.273438 182.4375 C 349.449219 199.460938 332.410156 211.011719 313.746094 214.960938 C 292.039062 219.523438 272.363281 212.429688 256.4375 197.535156 C 241.425781 183.554688 229.863281 165.71875 212.71875 154.167969 C 192.738281 140.695312 169.917969 143.328125 149.222656 153.765625 C 148.210938 154.269531 147.09375 154.777344 146.078125 155.386719 C 128.9375 140.996094 105.609375 134.511719 83.496094 136.539062 C 55.703125 139.074219 30.550781 153.359375 10.667969 172.40625 C 8.539062 174.535156 11.785156 177.777344 14.015625 175.75 C 46.777344 144.238281 98.710938 126.710938 138.980469 155.6875 C 139.890625 156.296875 140.703125 157.007812 141.617188 157.714844 C 122.953125 167.949219 103.074219 182.742188 97.59375 203.511719 C 92.421875 223.167969 102.769531 242.523438 123.5625 245.460938 C 142.429688 248.09375 159.875 237.660156 166.367188 219.824219 C 173.871094 199.257812 166.265625 175.648438 151.457031 160.351562 C 150.847656 159.742188 150.339844 159.234375 149.730469 158.628906 C 159.570312 153.460938 170.320312 149.40625 181.480469 149.203125 C 222.457031 148.292969 238.890625 197.230469 271.246094 214.152344 C 301.167969 229.753906 340.320312 217.699219 358.78125 190.542969 C 357.363281 197.230469 355.839844 204.019531 354.421875 210.707031 C 353.8125 213.644531 358.273438 214.859375 358.984375 211.921875 C 361.316406 200.878906 363.753906 189.835938 366.085938 178.789062 C 366.289062 177.980469 365.984375 177.066406 365.476562 176.460938 Z M 163.121094 214.660156 C 158.046875 234.214844 137.761719 246.167969 118.1875 239.382812 C 107.738281 235.734375 101.347656 226.613281 100.839844 215.671875 C 100.234375 203.210938 106.519531 191.761719 115.042969 183.148438 C 123.460938 174.535156 133.804688 167.746094 144.152344 161.769531 C 144.558594 161.566406 144.964844 161.261719 145.371094 161.058594 C 159.875 174.636719 168.191406 194.902344 163.121094 214.660156 Z M 163.121094 214.660156 " fill-opacity="1" fill-rule="nonzero"/></g></svg>